# xmcd
#
# Track frame offsets: 
#        225
#        10928
#        17914
#        31247
#        46199
#        62188
#        72422
#        85279
#        100669
#        115472
#        128473
#        141467
#        146562
#        158230
#        174854
#        192786
#        205692
#        232783
#        244259
#        254328
#        266994
#        279032
#        287918
#        296510
#        307973
#        318146
#
# Disc length: 4398 seconds
#
# Revision: 0
# Processed by: cddbd v1.5.2PL0 Copyright (c) Steve Scherf et al.
# Submitted via: ExactAudioCopy v0.99pb4
#
DISCID=71112b1a
DTITLE=Various Artist - 101 Country Greats [Box Set] CD4
DYEAR=2003
DGENRE=Country
TTITLE0=The Bellamy Brothers - Let Your Love Flow
TTITLE1=Mickey Gilley - Put Your Dreams Away
TTITLE2=Razzy Bailey - What Time Do You Have to Be Back in Heaven
TTITLE3=Jeannie C. Riley - Harper Valley Pta
TTITLE4=Earl Thomas Conley - Angel in Disguise
TTITLE5=Gail Davies - I'll Be There for You If You Ever Want Me
TTITLE6=Merle Haggard - Big City
TTITLE7=Tom T. Hall - I Like Beer
TTITLE8=Mel Tillis - Detroit City
TTITLE9=Merle Travis - Gambler's Guitar
TTITLE10=Faron Young - Apartment No. 9
TTITLE11=Tammy Wynette - Your Good Girls Gonna Go Bad
TTITLE12=George Jones - She Thinks I Still Care
TTITLE13=Merle Haggard - Ramblin' Fever
TTITLE14=Becky Hobbs - Yes I'm Ready
TTITLE15=Dave and Sugar Rowland - Door Is Always Open
TTITLE16=Jimmy Dean - To a Sleeping Beauty
TTITLE17=Dave Dudley - Six Days on the Road
TTITLE18=Freddy Fender - Before the Next Teardrop Falls
TTITLE19=David Frizzell - Lost My Baby Blues
TTITLE20=Mickey Gilley - Headache Tomorrow (Or a Heartache Tonight)
TTITLE21=George Jones - Love Bug
TTITLE22=Waylon Jennings - Abilene
TTITLE23=Faron Young - Wine Me Up
TTITLE24=Freddy Fender - Wasted Days and Wasted Nights
TTITLE25=Gene Watson - Carat Mind
EXTD=
EXTT0=
EXTT1=
EXTT2=
EXTT3=
EXTT4=
EXTT5=
EXTT6=
EXTT7=
EXTT8=
EXTT9=
EXTT10=
EXTT11=
EXTT12=
EXTT13=
EXTT14=
EXTT15=
EXTT16=
EXTT17=
EXTT18=
EXTT19=
EXTT20=
EXTT21=
EXTT22=
EXTT23=
EXTT24=
EXTT25=
PLAYORDER=
